<svg enable-background="new 0 0 50 50" height="50" viewBox="0 0 50 50" width="50" xmlns="http://www.w3.org/2000/svg"><g id="Layer_53"/><g id="Layer_52"/><g id="Layer_51"/><g id="Layer_50"/><g id="Layer_49"/><g id="Layer_48"/><g id="Layer_47"/><g id="Layer_46"/><g id="Layer_45"/><g id="Layer_44"/><g id="Layer_43"/><g id="Layer_42"/><g id="Layer_41"/><g id="Layer_40"/><g id="Layer_39"/><g id="Layer_38"/><g id="Layer_37"/><g id="Layer_36"/><g id="Layer_35"/><g id="Layer_34"/><g id="Layer_33"/><g id="Layer_32"/><g id="Layer_31"/><g id="Layer_30"/><g id="Layer_29"/><g id="Layer_28"/><g id="Layer_27"/><g id="Layer_26"/><g id="Layer_25"/><g id="Layer_24"/><g id="Layer_23"/><g id="Layer_22"/><g id="Layer_21"/><g id="Layer_20"/><g id="Layer_19"/><g id="Layer_18"/><g id="Layer_17"/><g id="Layer_16"/><g id="Layer_15"><path clip-rule="evenodd" d="m29.848 43.488v-7.275h-1.436l2.872-4.03 2.872 4.03h-1.436v7.275zm1.908-41.853-14.45-1.635c-5.953 6.061-11.051 13.071-13.86 21.159-2.462 7.088-2.804 13.834-.665 21.054 6.885 4.246 13.788 7.325 21.976 7.74 8.307.421 16.199-1.997 23.875-4.903l-.054-13.771c-11.214-5.217-19.348-10.605-29.687.95.073-5.394.552-11.26 1.762-16.511l5.483-.801.765-3.359 4.854-.83v-9.093z" fill-rule="evenodd"/></g><g id="Layer_14"/><g id="Layer_13"/><g id="Layer_12"/><g id="Layer_11"/><g id="Layer_10"/><g id="Layer_9"/><g id="Layer_8"/><g id="Layer_7"/><g id="Layer_6"/><g id="Layer_5"/><g id="Layer_4"/><g id="Layer_3"/><g id="Layer_2"/></svg>